#!OML:ASF I:\Actors\actors\Patient Classification 1\Patient 1\Session 1\Subject1.ASF
:FULLY-SPECIFIED
:DEGREES
1703
root 0.475164 17.5408 8.30726 16.1891 2.66595 -6.39946
lowerback 1.4531 -1.03448 6.14197
upperback -9.89919 -0.790744 1.625
thorax -11.529 -0.86252 -1.57831
lowerneck -18.7266 -4.69661 -2.64862
upperneck 24.439 -7.13681 4.50878
head 11.3114 -2.92266 0.998323
rclavicle -2.92959e-014 1.90833e-014
rhumerus 10.4377 28.1971 -76.3125
rradius 88.4958
rwrist -20.356
rhand -6.58351 -44.1467
rfingers 7.12502
rthumb 19.2713 286.788
lclavicle -2.92959e-014 1.90833e-014
lhumerus 16.7926 -44.0116 76.2136
lradius 79.2631
lwrist 18.5975
lhand -48.0865 -33.4572
lfingers 7.12502
lthumb -20.7515 -4.54677
rfemur -10.9309 35.3038 14.3308
rtibia 0.122909
rfoot -18.3705 -39.968
rtoes 13.4123
lfemur -4.66927 -62.7196 -6.1092
ltibia -5.60722
lfoot -55.6119 62.5346
ltoes 32.4865
1704
root 0.464315 17.5407 8.32667 16.1372 2.11036 -6.37456
lowerback 1.75544 -0.951845 6.94502
upperback -10.1732 -0.641035 0.987935
thorax -12.0663 -0.925046 -2.72126
lowerneck -18.4391 -4.61926 -2.17232
upperneck 24.5196 -7.25725 4.74957
head 11.2838 -2.90751 0.993962
rclavicle 8.05078e-015 -3.97569e-016
rhumerus 7.52515 27.1182 -78.9025
rradius 92.0245
rwrist -22.4257
rhand -6.75303 -42.8235
rfingers 7.12502
rthumb 19.1083 288.095
lclavicle 8.05078e-015 -3.97569e-016
lhumerus 12.5412 -44.0669 77.1223
lradius 82.6609
lwrist 12.1593
lhand -50.5863 -41.8443
lfingers 7.12502
lthumb -23.1517 -13.2155
rfemur -10.914 35.2353 14.3412
rtibia 0.151969
rfoot -17.7974 -39.5021
rtoes 12.5839
lfemur -3.88529 -62.2644 -6.87325
ltibia -5.6983
lfoot -55.9736 62.3228
ltoes 32.7617
1705
root 0.453413 17.5398 8.34862 16.0683 1.53346 -6.44634
lowerback 1.4973 -0.827538 6.7958
upperback -10.113 -0.502658 1.06722
thorax -11.8138 -0.830748 -2.57375
lowerneck -18.3489 -4.5683 -2.01928
upperneck 24.3931 -7.14789 4.48202
head 11.1954 -2.88243 0.890672
rclavicle 1.49585e-014 -5.1684e-015
rhumerus 5.4182 26.5288 -79.9461
rradius 95.7955
rwrist -25.6247
rhand -6.39876 -41.7598
rfingers 7.12502
rthumb 19.449 289.193
lclavicle 1.49585e-014 -5.1684e-015
lhumerus 8.5661 -43.2202 78.7996
lradius 86.3188
lwrist 6.36997
lhand -51.9382 -48.5411
lfingers 7.12502
lthumb -24.4483 -20.0813
rfemur -10.8746 35.0466 14.4899
rtibia 0.186695
rfoot -17.2158 -38.8671
rtoes 11.7863
lfemur -3.07739 -61.7628 -7.5455
ltibia -5.79083
lfoot -56.2654 62.1606
ltoes 32.9678
1706
root 0.442882 17.5373 8.37162 16.0148 1.10603 -6.47935
lowerback 1.15634 -0.740981 6.66063
upperback -10.0314 -0.424288 1.11987
thorax -11.4949 -0.766594 -2.45637
lowerneck -18.2969 -4.51451 -1.81432
upperneck 24.2603 -7.03342 4.15575
head 11.1081 -2.85673 0.75796
rclavicle -5.889e-015 1.94809e-014
rhumerus 3.31711 25.9287 -80.8333
rradius 99.4368
rwrist -29.3414
rhand -4.67554 -40.6869
rfingers 7.12502
rthumb 21.1051 290.442
lclavicle -5.889e-015 1.94809e-014
lhumerus 4.53799 -42.3128 80.3791
lradius 90.1975
lwrist 1.83412
lhand -52.2725 -52.2557
lfingers 7.12502
lthumb -24.7687 -23.8394
rfemur -10.7933 34.8357 14.6169
rtibia 0.174674
rfoot -16.7214 -38.3325
rtoes 11.1185
lfemur -2.5682 -61.3956 -7.9921
ltibia -5.79469
lfoot -56.2622 62.1964
ltoes 32.8478
1707
root 0.430405 17.536 8.39686 15.9224 0.745231 -6.42377
lowerback 0.87295 -0.676232 6.49804
upperback -9.97302 -0.376529 1.10696
thorax -11.243 -0.721372 -2.38956
lowerneck -18.1037 -4.46723 -1.69454
upperneck 24.0297 -6.96163 4.05711
head 10.9729 -2.83427 0.718603
rclavicle -1.51573e-014 1.03368e-014
rhumerus 1.10821 25.3025 -81.6899
rradius 102.702
rwrist -32.8788
rhand -1.97879 -39.0352
rfingers 7.12502
rthumb 23.6937 292.405
lclavicle -1.51573e-014 1.03368e-014
lhumerus 0.309673 -41.5593 81.8666
lradius 94.1012
lwrist -0.910309
lhand -51.6016 -52.8204
lfingers 7.12502
lthumb -24.1255 -24.3174
rfemur -10.6122 34.6768 14.6899
rtibia 0.11404
rfoot -16.2438 -37.9165
rtoes 10.4385
lfemur -1.97384 -61.1309 -8.61772
ltibia -5.75264
lfoot -56.5483 62.0634
ltoes 32.9959
1708
root 0.419361 17.5304 8.42004 15.6726 0.482644 -6.79678
lowerback 0.807475 -0.635059 6.83908
upperback -9.90675 -0.29784 1.20592
thorax -11.1294 -0.704187 -2.48223
lowerneck -17.7502 -4.40844 -1.60228
upperneck 23.7343 -6.90125 4.09898
head 10.7914 -2.80646 0.736122
rclavicle -1.73937e-015 7.15625e-015
rhumerus -0.334048 25.4802 -81.7302
rradius 105.899
rwrist -36.2041
rhand 0.666463 -37.5119
rfingers 7.12502
rthumb 26.2286 294.281
lclavicle -1.73937e-015 7.15625e-015
lhumerus -4.00843 -40.9813 83.2114
lradius 97.8977
lwrist -1.29182
lhand -50.2565 -51.4332
lfingers 7.12502
lthumb -22.8353 -22.765
rfemur -10.2048 34.3239 15.4523
rtibia 0.101704
rfoot -15.6639 -37.279
rtoes 9.54886
lfemur -1.0055 -60.8806 -9.07722
ltibia -5.73842
lfoot -56.6074 62.1213
ltoes 32.7951
1709
root 0.411053 17.5203 8.44092 15.2826 0.362141 -7.65429
lowerback 0.937376 -0.592748 7.78162
upperback -9.83754 -0.150908 1.39333
thorax -11.1449 -0.706368 -2.81804
lowerneck -17.3855 -4.41037 -1.46499
upperneck 23.4843 -6.90154 3.99143
head 10.6193 -2.82014 0.683958
rclavicle 3.24267e-014 -1.19271e-014
rhumerus -2.6366 25.1695 -82.3371
rradius 108.734
rwrist -38.1697
rhand 4.73336 -35.5259
rfingers 7.12502
rthumb 30.1156 296.908
lclavicle 3.24267e-014 -1.19271e-014
lhumerus -8.31606 -40.6634 84.5058
lradius 101.418
lwrist 0.806837
lhand -48.5948 -49.3096
lfingers 7.12502
lthumb -21.2399 -20.4533
rfemur -9.58851 33.7703 16.9559
rtibia 0.147033
rfoot -15.0802 -36.4469
rtoes 8.50514
lfemur 0.143622 -60.6515 -9.09855
ltibia -5.78527
lfoot -55.9176 62.6934
ltoes 31.6959
1710
root 0.397145 17.5147 8.46784 14.9853 0.122176 -8.15287
lowerback 0.894538 -0.509009 8.25034
upperback -9.8136 -0.0043314 1.47445
thorax -11.0899 -0.670411 -3.00631
lowerneck -16.9502 -4.46007 -1.36969
upperneck 23.2063 -6.9442 3.84326
head 10.4255 -2.86376 0.620594
rclavicle -2.03754e-014 7.15625e-015
rhumerus -5.39498 24.5518 -83.152
rradius 111.212
rwrist -39.4757
rhand 9.42755 -33.5438
rfingers 7.12502
rthumb 34.5832 299.804
lclavicle -2.03754e-014 7.15625e-015
lhumerus -12.8399 -40.4283 85.9944
lradius 104.712
lwrist 4.68503
lhand -46.9447 -46.04
lfingers 7.12502
lthumb -19.6541 -17.0136
rfemur -9.09826 33.3876 17.9182
rtibia 0.152439
rfoot -14.6743 -35.7573
rtoes 7.70688
lfemur 1.03512 -60.3804 -9.31014
ltibia -5.76807
lfoot -55.437 63.0838
ltoes 30.8826
1711
root 0.375169 17.516 8.50472 14.8817 -0.344024 -7.90119
lowerback 0.476497 -0.431472 7.72081
upperback -9.83202 0.0193873 1.439
thorax -10.8359 -0.60559 -2.75607
lowerneck -16.4018 -4.43877 -1.48787
upperneck 22.9172 -6.91689 4.03571
head 10.2279 -2.85534 0.725202
rclavicle 2.84014e-014 -3.73715e-014
rhumerus -8.11406 24.2217 -83.8636
rradius 113.341
rwrist -40.8307
rhand 13.3646 -31.6353
rfingers 7.12502
rthumb 38.3101 302.651
lclavicle 2.84014e-014 -3.73715e-014
lhumerus -17.5814 -39.8267 87.6794
lradius 107.72
lwrist 9.33264
lhand -44.502 -41.8475
lfingers 7.12502
lthumb -17.3044 -12.5979
rfemur -8.87907 33.3407 17.7698
rtibia 0.0958047
rfoot -14.4412 -35.3483
rtoes 7.40091
lfemur 1.6119 -60.0576 -10.1512
ltibia -5.64775
lfoot -55.7813 62.8925
ltoes 31.0926
1712
root 0.350422 17.5205 8.54365 14.8677 -0.940245 -7.25733
lowerback -0.0936478 -0.38058 6.66992
upperback -9.87325 -0.0329211 1.37624
thorax -10.511 -0.533354 -2.23884
lowerneck -16.1231 -4.33819 -1.72737
upperneck 23.1187 -6.78388 4.26076
head 10.2613 -2.79004 0.867387
rclavicle -2.03257e-014 3.29983e-014
rhumerus -10.996 23.9948 -84.622
rradius 115.089
rwrist -41.7981
rhand 17.5887 -29.8817
rfingers 7.12502
rthumb 42.2825 305.624
lclavicle -2.03257e-014 3.29983e-014
lhumerus -22.3531 -38.705 89.4236
lradius 110.242
lwrist 14.0529
lhand -40.7522 -37.6593
lfingers 7.12502
lthumb -13.6928 -8.12978
rfemur -8.86111 33.3063 17.046
rtibia 0.099036
rfoot -14.2013 -34.947
rtoes 7.13613
lfemur 2.11233 -59.6972 -11.4003
ltibia -5.52375
lfoot -56.4781 62.4537
ltoes 31.7205
1713
root 0.332762 17.5179 8.57417 14.6116 -1.35842 -7.33458
lowerback -0.325844 -0.330387 6.49338
upperback -9.8747 0.013393 1.48726
thorax -10.363 -0.485575 -2.02726
lowerneck -15.8159 -4.29867 -1.65493
upperneck 23.4091 -6.70173 4.00429
head 10.2913 -2.77699 0.782031
rclavicle -3.45388e-015 2.24627e-014
rhumerus -14.0857 23.5617 -85.4041
rradius 116.477
rwrist -42.1509
rhand 22.9342 -28.3534
rfingers 7.12502
rthumb 47.258 309.095
lclavicle -3.45388e-015 2.24627e-014
lhumerus -27.1411 -37.2721 91.1845
lradius 112.299
lwrist 18.2817
lhand -37.068 -34.1938
lfingers 7.12502
lthumb -10.1403 -4.45818
rfemur -8.53293 32.819 17.4226
rtibia 0.193994
rfoot -13.7495 -34.1202
rtoes 6.12088
lfemur 3.12863 -59.3628 -12.2457
ltibia -5.49313
lfoot -56.6548 62.4542
ltoes 31.637
1714
root 0.322342 17.5092 8.60164 14.0504 -1.57104 -8.1427
lowerback -0.214433 -0.277078 7.22408
upperback -9.79681 0.151393 1.73798
thorax -10.3478 -0.46589 -2.1758
lowerneck -15.2948 -4.22832 -1.59714
upperneck 23.5244 -6.58386 3.83339
head 10.2201 -2.74575 0.739252
rclavicle -2.81032e-014 6.40087e-014
rhumerus -16.9419 23.2927 -85.9261
rradius 117.547
rwrist -42.6961
rhand 27.3987 -26.7679
rfingers 7.12502
rthumb 51.3538 312.75
lclavicle -2.81032e-014 6.40087e-014
lhumerus -31.8925 -35.6515 92.8908
lradius 113.969
lwrist 21.7571
lhand -34.1465 -31.3381
lfingers 7.12502
lthumb -7.32098 -1.48477
rfemur -7.69095 32.0291 18.9661
rtibia 0.251054
rfoot -13.1416 -33.0237
rtoes 4.45216
lfemur 4.74986 -59.0909 -12.7527
ltibia -5.50597
lfoot -56.2704 62.9199
ltoes 30.7977
1715
root 0.30346 17.5086 8.63568 13.6601 -1.9438 -8.23844
lowerback -0.397363 -0.213335 7.04485
upperback -9.74241 0.213899 1.82531
thorax -10.1649 -0.408874 -1.99019
lowerneck -14.7844 -4.15829 -1.60055
upperneck 23.5264 -6.49307 3.85208
head 10.121 -2.71164 0.769444
rclavicle -2.01269e-015 -2.04748e-014
rhumerus -19.4263 23.3134 -86.1708
rradius 118.289
rwrist -43.4774
rhand 31.0102 -25.3682
rfingers 7.12502
rthumb 54.6128 316.217
lclavicle -2.01269e-015 -2.04748e-014
lhumerus -36.5116 -33.7451 94.4505
lradius 115.241
lwrist 24.6777
lhand -31.4313 -28.9169
lfingers 7.12502
lthumb -4.69959 1.01099
rfemur -7.10725 31.598 19.4832
rtibia 0.279606
rfoot -12.7634 -32.2818
rtoes 3.34121
lfemur 5.80296 -58.7928 -13.5963
ltibia -5.38478
lfoot -56.0579 63.1834
ltoes 30.2367
1716
root 0.276669 17.5123 8.67229 13.5499 -2.48078 -7.63811
lowerback -0.949918 -0.131858 6.00073
upperback -9.77268 0.21753 1.73541
thorax -9.8436 -0.315787 -1.51011
lowerneck -14.4014 -4.09603 -1.54501
upperneck 23.7185 -6.46816 3.97968
head 10.1192 -2.68421 0.815452
rclavicle 2.33572e-015 1.19271e-015
rhumerus -21.9153 23.3344 -86.4599
rradius 118.745
rwrist -43.8842
rhand 34.8235 -24.3554
rfingers 7.12502
rthumb 57.9833 319.908
lclavicle 2.33572e-015 1.19271e-015
lhumerus -41.0005 -31.5209 95.8053
lradius 116.124
lwrist 27.2492
lhand -28.7053 -26.7684
lfingers 7.12502
lthumb -2.0671 3.20131
rfemur -7.01709 31.4844 18.8938
rtibia 0.379565
rfoot -12.7046 -31.7857
rtoes 3.1745
lfemur 6.07792 -58.4471 -14.5866
ltibia -5.14063
lfoot -56.1046 63.1454
ltoes 30.0709
1717
root 0.257739 17.5102 8.70858 13.324 -2.93406 -7.40083
lowerback -1.41342 -0.012383 5.50694
upperback -9.75293 0.313957 1.66283
thorax -9.52845 -0.223589 -1.32231
lowerneck -14.0876 -4.10381 -1.47307
upperneck 24.076 -6.58782 4.22309
head 10.1994 -2.70412 0.878245
rclavicle -7.90169e-015 -1.78906e-015
rhumerus -24.7341 22.9821 -86.9335
rradius 118.994
rwrist -43.7419
rhand 38.2915 -23.3181
rfingers 7.12502
rthumb 60.9644 323.956
lclavicle -7.90169e-015 -1.78906e-015
lhumerus -45.2778 -29.0693 96.9277
lradius 116.708
lwrist 29.7154
lhand -26.1089 -24.6705
lfingers 7.12502
lthumb 0.440551 5.30879
rfemur -6.74416 31.1547 18.8095
rtibia 0.470373
rfoot -12.6033 -31.0618
rtoes 2.86384
lfemur 6.77329 -58.1231 -15.5358
ltibia -4.95716
lfoot -56.2466 63.0583
ltoes 30.0314
